{"title":"Bang Bang (2014) 720p DVDSCR Rip X.264 DTS 5.1 E.Sub TeamTNT","uid":11198946,"size":4518618997,"categoryP":"video","categoryS":"hd___movies","magnet":"?xt=urn:btih:513f0a95513be5ce5b020b428c5a7a02babfd34a&amp;dn=Bang+Bang+%282014%29+720p+DVDSCR+Rip+X.264+DTS+5.1+E.Sub+TeamTNT&amp;tr=udp%3A%2F%2Ftracker.openbittorrent.com%3A80&amp;tr=udp%3A%2F%2Fopen.demonii.com%3A1337&amp;tr=udp%3A%2F%2Ftracker.coppersurfer.tk%3A6969&amp;tr=udp%3A%2F%2Fexodus.desync.com%3A6969","seeders":6,"leechers":0,"uploader":"inovai","files":19,"time":1413141727,"description":"Bang Bang (2014) 720p DVDSCR Rip X.264 DTS 5.1 E.Sub TeamTNT\n\nCover:\n &lt;a href=&quot;\nhttp://forum.primetimeshow.in/viewtopic.php?f=7&amp;t=750&quot; rel=&quot;nofollow&quot; target=&quot;_NEW&quot;&gt;\nhttp://forum.primetimeshow.in/viewtopic.php?f=7&amp;t=750&lt;/a&gt;\n\nScreenshots:\n &lt;a href=&quot;\nhttp://m.primetimeshow.in/share-BCD4_543AB7DC.html&quot; rel=&quot;nofollow&quot; target=&quot;_NEW&quot;&gt;\nhttp://m.primetimeshow.in/share-BCD4_543AB7DC.html&lt;/a&gt;\n &lt;a href=&quot;\nhttp://m.primetimeshow.in/share-EF35_543AB7DC.html&quot; rel=&quot;nofollow&quot; target=&quot;_NEW&quot;&gt;\nhttp://m.primetimeshow.in/share-EF35_543AB7DC.html&lt;/a&gt;\n &lt;a href=&quot;\nhttp://m.primetimeshow.in/share-BE54_543AB7DC.html&quot; rel=&quot;nofollow&quot; target=&quot;_NEW&quot;&gt;\nhttp://m.primetimeshow.in/share-BE54_543AB7DC.html&lt;/a&gt;\n &lt;a href=&quot;\nhttp://m.primetimeshow.in/share-0A0E_543AB7DC.html&quot; rel=&quot;nofollow&quot; target=&quot;_NEW&quot;&gt;\nhttp://m.primetimeshow.in/share-0A0E_543AB7DC.html&lt;/a&gt;\n &lt;a href=&quot;\nhttp://m.primetimeshow.in/share-004E_543AB7DC.html&quot; rel=&quot;nofollow&quot; target=&quot;_NEW&quot;&gt;\nhttp://m.primetimeshow.in/share-004E_543AB7DC.html&lt;/a&gt;\n\nGeneral\nComplete name : E:Bang Bang.mkv\nFormat : Matroska\nFormat version : Version 2\nFile size : 4.18 GiB\nDuration : 2h 32mn\nOverall bit rate : 3 917 Kbps\nEncoded date : UTC 2014-10-12 10:50:12\nWriting application : mkvmerge v4.9.1 ('Ich will') built on Jul 11 2011 23:53:15\nWriting library : libebml v1.2.1 + libmatroska v1.1.1\n_STATISTICS_WRITING_APP : mkvmerge v7.0.0 ('Where We Going') 32bit built on Jun 9 2014 15:08:34\n_STATISTICS_WRITING_DATE_UTC : 2014-10-12 10:41:39\n_STATISTICS_TAGS : BPS DURATION NUMBER_OF_FRAMES NUMBER_OF_BYTES\nDURATION : 02:32:50.582000000\nNUMBER_OF_FRAMES : 394944\nNUMBER_OF_BYTES : 1415479296\n\nVideo\nID : 1\nFormat : AVC\nFormat/Info : Advanced Video Codec\nFormat profile : &lt;a class=&quot;__cf_email__&quot; href=&quot;/cdn-cgi/l/email-protection&quot; data-cfemail=&quot;cb83a2aca38b87fee5fb&quot;&gt;[email&amp;#160;protected]&lt;/a&gt;&lt;script cf-hash='f9e31' type=&quot;text/javascript&quot;&gt;\n/* &lt;![CDATA[ */!function(){try{var t=&quot;currentScript&quot;in document?document.currentScript:function(){for(var t=document.getElementsByTagName(&quot;script&quot;),e=t.length;e--;)if(t[e].getAttribute(&quot;cf-hash&quot;))return t[e]}();if(t&amp;&amp;t.previousSibling){var e,r,n,i,c=t.previousSibling,a=c.getAttribute(&quot;data-cfemail&quot;);if(a){for(e=&quot;&quot;,r=parseInt(a.substr(0,2),16),n=2;a.length-n;n+=2)i=parseInt(a.substr(n,2),16)^r,e+=String.fromCharCode(i);e=document.createTextNode(e),c.parentNode.replaceChild(e,c)}}}catch(u){}}();/* ]]&gt; */&lt;/script&gt;\nFormat settings, CABAC : Yes\nFormat settings, ReFrames : 16 frames\nMuxing mode : Header stripping\nCodec ID : V_MPEG4/ISO/AVC\nDuration : 2h 32mn\nBit rate : 2 427 Kbps\nNominal bit rate : 2 684 Kbps\nWidth : 1 280 pixels\nHeight : 490 pixels\nDisplay aspect ratio : 2.612\nFrame rate : 24.000 fps\nColor space : YUV\nChroma subsampling : 4:2:0\nBit depth : 8 bits\nScan type : Progressive\nBits/(Pixel*Frame) : 0.161\nStream size : 2.59 GiB (62%)\nWriting library : x264 core 142 r2431 ac76440\n\nAudio\nID : 2\nFormat : DTS\nFormat/Info : Digital Theater Systems\nMuxing mode : Header stripping\nCodec ID : A_DTS\nDuration : 2h 32mn\nBit rate mode : Constant\nBit rate : 1 411.2 Kbps\nChannel(s) : 6 channels\nChannel positions : Front: L C R, Side: L R, LFE\nSampling rate : 44.1 KHz\nBit depth : 24 bits\nCompression mode : Lossy\nStream size : 1.51 GiB (36%)\n\nSample included in torrent!\n\nThanks to TeamTNT!\n\nSeed n ENjoy!!","torrent":{"xt":"urn:btih:513f0a95513be5ce5b020b428c5a7a02babfd34a","amp;dn":"Bang+Bang+%282014%29+720p+DVDSCR+Rip+X.264+DTS+5.1+E.Sub+TeamTNT","amp;tr":["udp%3A%2F%2Ftracker.openbittorrent.com%3A80","udp%3A%2F%2Fopen.demonii.com%3A1337","udp%3A%2F%2Ftracker.coppersurfer.tk%3A6969","udp%3A%2F%2Fexodus.desync.com%3A6969"],"infoHash":"513f0a95513be5ce5b020b428c5a7a02babfd34a","infoHashBuffer":{"type":"Buffer","data":[81,63,10,149,81,59,229,206,91,2,11,66,140,90,122,2,186,191,211,74]},"announce":[],"urlList":[]}}